# xmcd
#
# Track frame offsets:
# 150
# 11790
# 22120
# 33035
# 46470
# 56662
# 73875
# 87215
# 103907
# 115775
# 126747
# 137917
# 156355
# 166075
#
# Disc length: 2344 seconds
#
#
# Revision: 4
# Processed by: cddbd v1.4PL0 Copyright (c) Steve Scherf et al.
# Submitted via: HomeWorker 1.0 
#
DISCID=c809260e
DTITLE=Freddy Quinn - Country and Western
DYEAR=1993
DGENRE=country
TTITLE0=Die Freiheit der Berge
TTITLE1=Die schönste Frau von Texas
TTITLE2=Die Wahrheit über Tom Dooley
TTITLE3=Oh, nur mit Dir
TTITLE4=Geh'n wir nochmal den Weg nach Westen
TTITLE5=Gib mir ein Zuhaus
TTITLE6=Green Green Grass of Home
TTITLE7=Heute Nacht, da brauch ich dich
TTITLE8=Ich möcht in Tennessee leben
TTITLE9=Kann Liebe alles verzeih'n
TTITLE10=Nur ein Mann in besten Jahren
TTITLE11=Er war ein Kind dieser Stadt
TTITLE12=Oh, Susanna, du Rose der Prärie
TTITLE13=Oh, wie schade, Clementine
EXTD=In Lizenz von Werner Triepke Music GmbH - 1993 edel Company
EXTT0=
EXTT1=
EXTT2=
EXTT3=
EXTT4=
EXTT5=
EXTT6=
EXTT7=
EXTT8=
EXTT9=
EXTT10=
EXTT11=
EXTT12=
EXTT13=
PLAYORDER=
